# xmcd CD database file
#
# Track frame offsets:
#	150
#	15019
#	46631
#	65211
#	89527
#	95962
#	111988
#	122557
#	154904
#	160007
#
# Disc length: 2323 seconds
#
# Revision: 0
# Processed by: cddbd v1.5.2PL0 Copyright (c) Steve Scherf et al.
# Submitted via: CDex 1.70beta2
#
DISCID=7a09110a
DTITLE=The Creative Music Laboratory of The Gordian Knot Company - Sunset on Left Soundtrack
DYEAR=2000
DGENRE=Jazz
TTITLE0=Opening
TTITLE1=The Beginning
TTITLE2=Ad Hoc q
TTITLE3=Wandering
TTITLE4=never seen his Brother
TTITLE5=Call
TTITLE6=Neo-Gogo Punkbige
TTITLE7=Requiem for the GDR
TTITLE8=On the Route
TTITLE9=The Final One
EXTD=YEAR: 2000
EXTT0=
EXTT1=
EXTT2=
EXTT3=
EXTT4=
EXTT5=
EXTT6=
EXTT7=
EXTT8=
EXTT9=
PLAYORDER=
